# xmcd
#
# Track frame offsets: 
#        187
#        23790
#        41697
#        64570
#        86970
#        105602
#        129480
#        146130
#        165930
#        189970
#        205840
#        228525
#        246045
#
# Disc length: 3530 seconds
#
# Revision: 1
# Processed by: cddbd v1.5.2PL0 Copyright (c) Steve Scherf et al.
# Submitted via: ExactAudioCopy v0.99pb4
#
DISCID=ac0dc80d
DTITLE=Doug MacLeod - You Can't Take My Blues
DYEAR=1996
DGENRE=blues
TTITLE0=One Good Woman
TTITLE1=Bus With No Destination
TTITLE2=You Can't Take My Blues
TTITLE3=Things'll Be Better, You'll See
TTITLE4=Papa John
TTITLE5=Hey Bartender
TTITLE6=Another Funny Deal Goin' Down
TTITLE7=Walkin' My Way Back To You
TTITLE8=All I Had Was The Blues
TTITLE9=Runnin' With Carey
TTITLE10=Chill On Cold
TTITLE11=Handle It Yourself
TTITLE12=Sometimes I Wonder
EXTD=
EXTT0=
EXTT1=
EXTT2=
EXTT3=
EXTT4=
EXTT5=
EXTT6=
EXTT7=
EXTT8=
EXTT9=
EXTT10=
EXTT11=
EXTT12=
PLAYORDER=
